<svg xmlns="http://www.w3.org/2000/svg" viewBox="0 0 32 32"><title>61-Speech Bubble-Question</title><g id="_60-Speech_Bubble" data-name="60-Speech Bubble"><path d="M31,1H1A1,1,0,0,0,0,2V24a1,1,0,0,0,1,1H11v5a1,1,0,0,0,1.71.71L18.41,25H31a1,1,0,0,0,1-1V2A1,1,0,0,0,31,1ZM30,23H18a1,1,0,0,0-.71.29L13,27.59V24a1,1,0,0,0-1-1H2V3H30Z"/><rect x="14" y="11" width="4" height="4" rx="1" ry="1"/><rect x="21" y="11" width="4" height="4" rx="1" ry="1"/><rect x="7" y="11" width="4" height="4" rx="1" ry="1"/></g></svg>