<svg width="99" height="99" viewBox="0 0 99 99" fill="none" xmlns="http://www.w3.org/2000/svg">
<path d="M81.3198 11.3207C73.7877 5.05148 64.4515 0.947153 54.123 0V9.0656C61.9257 9.92255 69.0519 13.0346 74.9153 17.7253L81.3198 11.3207Z" fill="#6E727E" fill-opacity="0.46"/>
<path d="M45.1025 9.0656V0C34.774 0.90205 25.4378 5.05148 17.9057 11.3207L24.3102 17.7253C30.1736 13.0346 37.2998 9.92255 45.1025 9.0656Z" fill="#6E727E" fill-opacity="0.46"/>
<path d="M17.9508 24.0847L11.5462 17.6802C5.27699 25.2123 1.17266 34.5485 0.225512 44.877H9.29112C10.1481 37.0743 13.2601 29.9481 17.9508 24.0847Z" fill="#6E727E" fill-opacity="0.46"/>
<path d="M89.9344 44.877H99C98.0528 34.5485 93.9485 25.2123 87.6793 17.6802L81.2747 24.0847C85.9654 29.9481 89.0775 37.0743 89.9344 44.877Z" fill="#6E727E" fill-opacity="0.46"/>
<path d="M27.0615 49.3872L42.5768 56.4232L49.6128 71.9385L56.6488 56.4232L72.164 49.3872L56.6488 42.3512L49.6128 26.836L42.5768 42.3512L27.0615 49.3872Z" fill="#6E727E" fill-opacity="0.46"/>
<path d="M49.6128 89.9795C35.5859 89.9795 23.2278 82.8082 15.9663 71.9385H27.0615V62.918H0V89.9795H9.0205V77.8018C17.9959 90.6109 32.7895 99 49.6128 99C71.5777 99 90.205 84.7025 96.6998 64.9025L87.8597 62.8729C82.3121 78.6137 67.2929 89.9795 49.6128 89.9795Z" fill="#6E727E" fill-opacity="0.46"/>
</svg>
