<svg width="104px" height="104px" viewBox="0 0 104 104" fill="none" xmlns="http://www.w3.org/2000/svg" transform="rotate(0) scale(1, 1)">
<path d="M95.2033 58.5867C95.2033 58.5433 95.2033 58.5 95.2033 58.4133C100.577 53.6467 104 46.7133 104 39C104 24.6567 92.3433 13 78 13C76.8733 13 75.7467 13.0867 74.62 13.26C70.1567 5.33 61.7067 0 52 0C42.2933 0 33.8433 5.33 29.38 13.26C28.2533 13.0867 27.1267 13 26 13C11.6567 13 0 24.6567 0 39C0 46.7133 3.42333 53.6467 8.75333 58.4133C8.75333 58.4567 8.75333 58.5 8.75333 58.5867C3.42333 63.3533 0 70.2867 0 78C0 92.3433 11.6567 104 26 104C32.0233 104 37.57 101.92 41.99 98.4533C45.1967 99.2333 48.5333 99.6667 52 99.6667C55.4667 99.6667 58.8033 99.2333 62.01 98.4533C66.43 101.92 71.9767 104 78 104C92.3433 104 104 92.3433 104 78C104 70.2867 100.577 63.3533 95.2033 58.5867ZM95.3333 39C95.3333 41.3833 94.8133 43.6367 93.9467 45.6733C91.4767 35.9233 85.7133 27.5167 77.9133 21.6667C77.9567 21.6667 77.9567 21.6667 78 21.6667C87.5767 21.6667 95.3333 29.4233 95.3333 39ZM52.13 21.6667C63.96 21.71 74.36 27.69 80.6 36.7467C77.5233 39.2167 73.6667 40.6033 69.6367 40.6033C59.8867 40.6467 52 32.7167 52 23.01C52 22.5767 52.0867 22.1433 52.13 21.6667ZM52 8.66667C57.4167 8.66667 62.2267 11.2233 65.4333 15.1667C61.1867 13.78 56.68 13 52 13C47.32 13 42.8133 13.78 38.5667 15.1667C41.7733 11.2233 46.5833 8.66667 52 8.66667ZM26 21.6667C26.0433 21.6667 26.0433 21.6667 26.0867 21.6667C18.2867 27.5167 12.5233 35.9233 10.0533 45.6733C9.18667 43.6367 8.66667 41.3833 8.66667 39C8.66667 29.4233 16.4233 21.6667 26 21.6667ZM26 95.3333C16.4233 95.3333 8.66667 87.5767 8.66667 78C8.66667 75.01 9.49 72.28 10.8333 69.8533C14.3 80.4267 21.7533 89.2233 31.3733 94.4667C29.6833 95.03 27.9067 95.3333 26 95.3333ZM17.3333 56.3333C17.3333 40.2133 28.4267 26.65 43.3333 22.7933C43.3333 22.88 43.3333 22.9233 43.3333 23.01C43.3333 37.4833 55.12 49.27 69.5933 49.27C75.0533 49.27 80.21 47.58 84.5433 44.5467C85.8867 48.2733 86.6667 52.2167 86.6667 56.3333C86.6667 75.4433 71.11 91 52 91C32.89 91 17.3333 75.4433 17.3333 56.3333ZM78 95.3333C76.0933 95.3333 74.3167 95.03 72.5833 94.4667C82.2467 89.2233 89.6567 80.4267 93.1233 69.8533C94.4667 72.28 95.29 75.0533 95.29 78C95.3333 87.5767 87.5767 95.3333 78 95.3333Z" fill="#ffffff"/>
<path d="M39 66.0833C41.9915 66.0833 44.4167 63.6582 44.4167 60.6667C44.4167 57.6751 41.9915 55.25 39 55.25C36.0085 55.25 33.5833 57.6751 33.5833 60.6667C33.5833 63.6582 36.0085 66.0833 39 66.0833Z" fill="#ffffff"/>
<path d="M65 66.0833C67.9915 66.0833 70.4167 63.6582 70.4167 60.6667C70.4167 57.6751 67.9915 55.25 65 55.25C62.0085 55.25 59.5833 57.6751 59.5833 60.6667C59.5833 63.6582 62.0085 66.0833 65 66.0833Z" fill="#ffffff"/>
</svg>