<svg width="540px" height="92px" viewBox="0 0 540 92" fill="none" xmlns="http://www.w3.org/2000/svg" transform="rotate(0) scale(1, 1)">
<path d="M55.1635 0L54.5032 0.463869C52.4485 1.89381 4.22139 35.5087 2.87613 36.5155C0.971489 37.8526 3.8147e-06 39.5062 3.8147e-06 41.4245V42.3767C0.0216599 43.8584 0.553963 45.9432 2.87591 47.6867L2.88435 47.6924C4.0031 48.4919 15.39 56.3807 27.4454 64.7358C28.5065 65.4714 29.5803 66.2153 30.6563 66.9609L31.374 67.4584C42.0211 74.8367 52.7062 82.2441 54.1513 83.2665V84.5953L54.9398 83.2691C54.9781 83.2009 55.0134 83.1435 54.9725 83.0508H54.9974V76.1144C54.9974 73.7487 54.7353 72.6109 52.102 70.8564C50.9804 70.1352 41.376 63.5031 31.6202 56.7523L30.4725 55.958C21.4825 49.7362 12.6414 43.607 10.4702 42.1038C15.0543 38.9196 49.4197 15.0625 51.7743 13.3379L52.0528 13.136C53.7937 11.8752 55.1635 10.8821 55.1635 8.25696V0ZM50.7052 24.1162C48.3802 25.6116 25.8957 41.2144 25.6692 41.3753L25.159 41.7275L25.6774 42.0739C25.6774 42.0739 27.1972 43.0864 28.8836 44.2651C30.3272 45.3238 31.6778 45.8531 33.0203 45.8531C34.2127 45.8531 35.3942 45.4384 36.6386 44.6116C37.9639 43.7267 41.698 41.151 45.4776 38.5341L45.9931 38.1772C49.0837 36.0364 52.1724 33.8926 55.259 31.7458L55.4391 31.6202V26.321C55.4391 25.104 54.9151 24.1409 53.9956 23.6742C53.0107 23.1722 51.7799 23.336 50.7049 24.1162H50.7052Z" fill="url(#paint0_linear_48_516)"/>
<path d="M90.6536 6.59065V79.088" stroke="#ffffff" stroke-opacity="0.2" stroke-width="2.19689"/>
<path d="M536.509 48.7257C533.276 48.7257 530.762 47.8469 528.97 46.0894C527.212 44.2967 526.333 41.7835 526.333 38.5497V25.8956H521.377V19.7267H521.904C523.31 19.7267 524.4 19.3577 525.173 18.6195C525.947 17.8814 526.333 16.8093 526.333 15.4033V13.1888H533.24V19.7267H539.831V25.8956H533.24V38.1806C533.24 39.1297 533.399 39.9381 533.715 40.606C534.066 41.2738 534.594 41.7835 535.297 42.135C536.035 42.4865 536.966 42.6623 538.091 42.6623C538.337 42.6623 538.618 42.6447 538.935 42.6095C539.286 42.5744 539.62 42.5392 539.937 42.5041V48.4093C539.444 48.4796 538.882 48.5499 538.249 48.6202C537.617 48.6905 537.037 48.7257 536.509 48.7257Z" fill="#ffffff"/>
<path d="M489.543 48.4093V19.7267H496.028V25.3684L495.501 24.3666C496.169 22.6442 497.259 21.3437 498.77 20.4649C500.317 19.551 502.109 19.094 504.148 19.094C506.257 19.094 508.12 19.551 509.737 20.4649C511.389 21.3788 512.672 22.6618 513.586 24.3138C514.5 25.9308 514.957 27.8113 514.957 29.9555V48.4093H508.05V31.5899C508.05 30.3245 507.804 29.2349 507.312 28.321C506.819 27.4071 506.134 26.7041 505.255 26.212C504.412 25.6847 503.41 25.4211 502.25 25.4211C501.125 25.4211 500.123 25.6847 499.245 26.212C498.366 26.7041 497.68 27.4071 497.188 28.321C496.696 29.2349 496.45 30.3245 496.45 31.5899V48.4093H489.543Z" fill="#ffffff"/>
<path d="M468.226 49.042C465.273 49.042 462.69 48.3742 460.475 47.0385C458.261 45.7028 456.539 43.8925 455.308 41.6078C454.078 39.323 453.463 36.7922 453.463 34.0153C453.463 31.133 454.078 28.5846 455.308 26.3701C456.574 24.1205 458.278 22.3454 460.423 21.0449C462.602 19.7443 465.027 19.094 467.699 19.094C469.948 19.094 471.917 19.4631 473.604 20.2013C475.326 20.9394 476.785 21.9588 477.98 23.2593C479.175 24.5599 480.089 26.0538 480.722 27.741C481.355 29.3931 481.671 31.1857 481.671 33.119C481.671 33.6111 481.636 34.1208 481.565 34.648C481.53 35.1753 481.442 35.6322 481.302 36.0189H459.157V30.7463H477.4L474.131 33.2244C474.448 31.6075 474.36 30.1664 473.868 28.901C473.411 27.6355 472.637 26.6338 471.548 25.8956C470.493 25.1575 469.21 24.7884 467.699 24.7884C466.258 24.7884 464.975 25.1575 463.85 25.8956C462.725 26.5986 461.864 27.6531 461.266 29.0591C460.704 30.43 460.493 32.0996 460.634 34.068C460.493 35.8255 460.721 37.3897 461.319 38.7606C461.952 40.0963 462.866 41.1332 464.061 41.8714C465.291 42.6095 466.697 42.9786 468.279 42.9786C469.86 42.9786 471.196 42.6447 472.286 41.9768C473.411 41.309 474.289 40.4126 474.922 39.2878L480.511 42.0296C479.949 43.4004 479.07 44.6131 477.875 45.6676C476.68 46.7221 475.256 47.5481 473.604 48.1457C471.987 48.7432 470.194 49.042 468.226 49.042Z" fill="#ffffff"/>
<path d="M431.511 60.0089C429.367 60.0089 427.381 59.6574 425.553 58.9544C423.725 58.2514 422.144 57.2672 420.808 56.0018C419.507 54.7715 418.558 53.3128 417.961 51.6256L424.393 49.2002C424.815 50.5359 425.641 51.608 426.871 52.4165C428.137 53.2601 429.683 53.6819 431.511 53.6819C432.917 53.6819 434.147 53.4182 435.202 52.891C436.292 52.3637 437.135 51.5904 437.733 50.5711C438.33 49.5869 438.629 48.3917 438.629 46.9857V40.4478L439.947 42.0296C438.963 43.7519 437.645 45.0525 435.993 45.9312C434.341 46.81 432.46 47.2494 430.351 47.2494C427.68 47.2494 425.289 46.6342 423.18 45.404C421.071 44.1737 419.419 42.4865 418.224 40.3423C417.029 38.1982 416.432 35.7904 416.432 33.119C416.432 30.4124 417.029 28.0046 418.224 25.8956C419.419 23.7866 421.054 22.1345 423.128 20.9394C425.202 19.7092 427.557 19.094 430.193 19.094C432.337 19.094 434.218 19.551 435.835 20.4649C437.487 21.3437 438.857 22.6266 439.947 24.3138L438.998 26.0538V19.7267H445.536V46.9857C445.536 49.4814 444.921 51.7134 443.691 53.6819C442.496 55.6503 440.843 57.1969 438.734 58.3217C436.661 59.4465 434.253 60.0089 431.511 60.0089ZM431.195 40.8696C432.671 40.8696 433.954 40.5532 435.044 39.9205C436.169 39.2527 437.047 38.3388 437.68 37.1788C438.313 36.0189 438.629 34.6832 438.629 33.1717C438.629 31.6954 438.295 30.3773 437.627 29.2173C436.995 28.0222 436.116 27.0907 434.991 26.4229C433.901 25.755 432.636 25.4211 431.195 25.4211C429.754 25.4211 428.453 25.755 427.293 26.4229C426.133 27.0907 425.219 28.0222 424.551 29.2173C423.919 30.3773 423.602 31.6954 423.602 33.1717C423.602 34.648 423.919 35.9661 424.551 37.1261C425.219 38.2861 426.116 39.2 427.24 39.8678C428.4 40.5357 429.718 40.8696 431.195 40.8696Z" fill="#ffffff"/>
<path d="M375.813 48.4093L389.363 9.12895H398.643L412.193 48.4093H404.39L401.596 39.9733H386.411L383.564 48.4093H375.813ZM388.467 33.6462H399.539L393.001 14.0851H395.005L388.467 33.6462Z" fill="#ffffff"/>
<path d="M359.644 49.042C356.586 49.042 353.914 48.3214 351.629 46.8803C349.38 45.404 347.833 43.418 346.99 40.9223L352.157 38.4442C352.895 40.0611 353.914 41.3266 355.215 42.2405C356.55 43.1544 358.027 43.6113 359.644 43.6113C360.909 43.6113 361.911 43.3301 362.649 42.7677C363.387 42.2053 363.756 41.4672 363.756 40.5533C363.756 39.9908 363.598 39.5339 363.282 39.1824C363 38.7957 362.596 38.4794 362.069 38.2333C361.577 37.9521 361.032 37.7237 360.434 37.5479L355.742 36.2298C353.317 35.5268 351.471 34.4547 350.206 33.0135C348.975 31.5724 348.36 29.8676 348.36 27.8992C348.36 26.1417 348.8 24.6126 349.678 23.3121C350.592 21.9764 351.84 20.9394 353.422 20.2013C355.039 19.4631 356.884 19.094 358.958 19.094C361.665 19.094 364.055 19.7443 366.129 21.0449C368.203 22.3454 369.679 24.1732 370.558 26.5283L365.285 29.0064C364.793 27.7058 363.967 26.6689 362.807 25.8956C361.647 25.1223 360.347 24.7357 358.905 24.7357C357.745 24.7357 356.832 24.9993 356.164 25.5265C355.496 26.0538 355.162 26.7392 355.162 27.5828C355.162 28.1101 355.303 28.567 355.584 28.9537C355.865 29.3403 356.252 29.6567 356.744 29.9027C357.271 30.1488 357.868 30.3773 358.536 30.5882L363.123 31.959C365.479 32.662 367.289 33.7165 368.554 35.1225C369.855 36.5285 370.505 38.2509 370.505 40.2896C370.505 42.012 370.048 43.541 369.134 44.8767C368.22 46.1773 366.955 47.1966 365.338 47.9348C363.721 48.6729 361.823 49.042 359.644 49.042Z" fill="#ffffff"/>
<path d="M326.373 48.4093V19.7267H332.858V26.1065L332.331 25.1574C332.998 23.0133 334.035 21.5194 335.441 20.6758C336.883 19.8322 338.605 19.4104 340.609 19.4104H342.296V25.5265H339.818C337.849 25.5265 336.267 26.1417 335.072 27.3719C333.877 28.567 333.28 30.2542 333.28 32.4335V48.4093H326.373Z" fill="#ffffff"/>
<path d="M305.056 49.042C302.103 49.042 299.519 48.3742 297.305 47.0385C295.09 45.7028 293.368 43.8925 292.138 41.6078C290.908 39.323 290.292 36.7922 290.292 34.0153C290.292 31.133 290.908 28.5846 292.138 26.3701C293.403 24.1205 295.108 22.3454 297.252 21.0449C299.432 19.7443 301.857 19.094 304.528 19.094C306.778 19.094 308.746 19.4631 310.434 20.2013C312.156 20.9394 313.615 21.9588 314.81 23.2593C316.005 24.5599 316.919 26.0538 317.551 27.741C318.184 29.3931 318.501 31.1857 318.501 33.119C318.501 33.6111 318.465 34.1208 318.395 34.648C318.36 35.1753 318.272 35.6322 318.131 36.0189H295.987V30.7463H314.23L310.961 33.2244C311.277 31.6075 311.189 30.1664 310.697 28.901C310.24 27.6355 309.467 26.6338 308.377 25.8956C307.323 25.1575 306.04 24.7884 304.528 24.7884C303.087 24.7884 301.804 25.1575 300.679 25.8956C299.555 26.5986 298.693 27.6531 298.096 29.0591C297.533 30.43 297.323 32.0996 297.463 34.068C297.323 35.8255 297.551 37.3897 298.149 38.7606C298.781 40.0963 299.695 41.1332 300.89 41.8714C302.121 42.6095 303.527 42.9786 305.108 42.9786C306.69 42.9786 308.026 42.6447 309.115 41.9768C310.24 41.309 311.119 40.4126 311.752 39.2878L317.341 42.0296C316.778 43.4004 315.899 44.6131 314.704 45.6676C313.509 46.7221 312.086 47.5481 310.434 48.1457C308.817 48.7432 307.024 49.042 305.056 49.042Z" fill="#ffffff"/>
<path d="M266.731 49.042C263.954 49.042 261.476 48.3917 259.297 47.0912C257.117 45.7555 255.395 43.9452 254.13 41.6605C252.864 39.3757 252.231 36.8449 252.231 34.068C252.231 31.256 252.864 28.7252 254.13 26.4756C255.395 24.226 257.117 22.4333 259.297 21.0976C261.511 19.7619 263.972 19.094 266.678 19.094C268.857 19.094 270.791 19.5334 272.478 20.4122C274.2 21.2558 275.554 22.4509 276.538 23.9975L275.483 25.4211V8.49625H282.39V48.4093H275.852V42.8732L276.591 44.244C275.606 45.7906 274.235 46.9857 272.478 47.8293C270.72 48.6378 268.805 49.042 266.731 49.042ZM267.469 42.715C269.051 42.715 270.439 42.3459 271.634 41.6077C272.829 40.8696 273.761 39.8502 274.429 38.5497C275.132 37.2491 275.483 35.7552 275.483 34.068C275.483 32.416 275.132 30.9397 274.429 29.6391C273.761 28.3034 272.829 27.2665 271.634 26.5283C270.439 25.7901 269.051 25.4211 267.469 25.4211C265.922 25.4211 264.534 25.8077 263.304 26.581C262.073 27.3192 261.107 28.3385 260.404 29.6391C259.736 30.9045 259.402 32.3808 259.402 34.068C259.402 35.7552 259.736 37.2491 260.404 38.5497C261.107 39.8502 262.073 40.8696 263.304 41.6077C264.534 42.3459 265.922 42.715 267.469 42.715Z" fill="#ffffff"/>
<path d="M228.67 49.042C225.893 49.042 223.415 48.3917 221.235 47.0912C219.056 45.7555 217.334 43.9452 216.068 41.6605C214.803 39.3757 214.17 36.8449 214.17 34.068C214.17 31.256 214.803 28.7252 216.068 26.4756C217.334 24.226 219.056 22.4333 221.235 21.0976C223.45 19.7619 225.91 19.094 228.617 19.094C230.796 19.094 232.73 19.5334 234.417 20.4122C236.139 21.2558 237.492 22.4509 238.477 23.9975L237.422 25.4211V8.49625H244.329V48.4093H237.791V42.8732L238.529 44.244C237.545 45.7906 236.174 46.9857 234.417 47.8293C232.659 48.6378 230.744 49.042 228.67 49.042ZM229.408 42.715C230.99 42.715 232.378 42.3459 233.573 41.6077C234.768 40.8696 235.7 39.8502 236.368 38.5497C237.071 37.2491 237.422 35.7552 237.422 34.068C237.422 32.416 237.071 30.9397 236.368 29.6391C235.7 28.3034 234.768 27.2665 233.573 26.5283C232.378 25.7901 230.99 25.4211 229.408 25.4211C227.861 25.4211 226.473 25.8077 225.243 26.581C224.012 27.3192 223.046 28.3385 222.343 29.6391C221.675 30.9045 221.341 32.3808 221.341 34.068C221.341 35.7552 221.675 37.2491 222.343 38.5497C223.046 39.8502 224.012 40.8696 225.243 41.6077C226.473 42.3459 227.861 42.715 229.408 42.715Z" fill="#ffffff"/>
<path d="M190.809 49.042C188.805 49.042 187.065 48.7081 185.589 48.0402C184.113 47.3724 182.97 46.4233 182.162 45.1931C181.353 43.9277 180.949 42.4689 180.949 40.8169C180.949 39.2351 181.301 37.8291 182.004 36.5988C182.707 35.3334 183.796 34.2789 185.273 33.4353C186.749 32.5917 188.612 31.9942 190.862 31.6427L200.247 30.1136V35.3862L192.18 36.757C190.809 37.0031 189.789 37.4425 189.122 38.0752C188.454 38.7079 188.12 39.5339 188.12 40.5533C188.12 41.5375 188.489 42.3283 189.227 42.9259C190 43.4883 190.949 43.7695 192.074 43.7695C193.515 43.7695 194.781 43.4707 195.87 42.8732C196.995 42.2405 197.856 41.3793 198.454 40.2896C199.087 39.2 199.403 38.0049 199.403 36.7043V29.3228C199.403 28.0925 198.911 27.0731 197.927 26.2647C196.978 25.4211 195.712 24.9993 194.131 24.9993C192.654 24.9993 191.336 25.4035 190.176 26.212C189.051 26.9853 188.225 28.0222 187.698 29.3228L182.056 26.581C182.619 25.0696 183.498 23.769 184.693 22.6794C185.923 21.5546 187.364 20.6758 189.016 20.0431C190.668 19.4104 192.461 19.094 194.394 19.094C196.749 19.094 198.823 19.5334 200.616 20.4122C202.408 21.2558 203.797 22.4509 204.781 23.9975C205.8 25.509 206.31 27.284 206.31 29.3228V48.4093H199.772V43.5059L201.248 43.4004C200.51 44.6307 199.632 45.6676 198.612 46.5112C197.593 47.3197 196.433 47.9524 195.132 48.4093C193.832 48.8311 192.391 49.042 190.809 49.042Z" fill="#ffffff"/>
<path d="M148.219 48.4093V8.49625H155.126V25.3684L154.177 24.3666C154.845 22.6442 155.934 21.3437 157.446 20.4649C158.992 19.551 160.785 19.094 162.824 19.094C164.933 19.094 166.796 19.551 168.413 20.4649C170.065 21.3788 171.348 22.6618 172.261 24.3138C173.175 25.9308 173.632 27.8113 173.632 29.9555V48.4093H166.725V31.5899C166.725 30.3245 166.479 29.2349 165.987 28.321C165.495 27.4071 164.81 26.7041 163.931 26.212C163.087 25.6847 162.086 25.4211 160.926 25.4211C159.801 25.4211 158.799 25.6847 157.92 26.212C157.041 26.7041 156.356 27.4071 155.864 28.321C155.372 29.2349 155.126 30.3245 155.126 31.5899V48.4093H148.219Z" fill="#ffffff"/>
<path d="M126.05 49.042C123.554 49.042 121.234 48.5851 119.09 47.6712C116.981 46.7573 115.153 45.4918 113.607 43.8749C112.095 42.2229 110.988 40.3072 110.285 38.1279L116.243 35.5443C117.192 37.794 118.563 39.569 120.355 40.8696C122.148 42.135 124.169 42.7677 126.419 42.7677C127.684 42.7677 128.774 42.5744 129.688 42.1877C130.637 41.7659 131.357 41.2035 131.85 40.5005C132.377 39.7975 132.64 38.9539 132.64 37.9697C132.64 36.8097 132.289 35.8607 131.586 35.1225C130.918 34.3492 129.899 33.7517 128.528 33.3299L120.988 30.9045C117.93 29.9555 115.628 28.5319 114.081 26.6338C112.535 24.7356 111.761 22.5036 111.761 19.9376C111.761 17.688 112.306 15.702 113.396 13.9797C114.521 12.2573 116.067 10.9216 118.036 9.97256C120.039 8.98835 122.324 8.49625 124.89 8.49625C127.245 8.49625 129.407 8.91805 131.375 9.76165C133.343 10.5701 135.031 11.7125 136.437 13.1888C137.878 14.63 138.95 16.3347 139.653 18.3032L133.748 20.9394C132.974 18.971 131.814 17.4595 130.268 16.405C128.721 15.3154 126.929 14.7706 124.89 14.7706C123.695 14.7706 122.64 14.9815 121.726 15.4033C120.812 15.7899 120.092 16.3523 119.565 17.0905C119.072 17.7935 118.826 18.6371 118.826 19.6213C118.826 20.7109 119.178 21.6776 119.881 22.5212C120.584 23.3296 121.656 23.9623 123.097 24.4193L130.321 26.6865C133.449 27.7058 135.786 29.1118 137.333 30.9045C138.915 32.6972 139.706 34.9116 139.706 37.5479C139.706 39.7975 139.126 41.7835 137.966 43.5059C136.806 45.2282 135.206 46.5815 133.168 47.5657C131.129 48.5499 128.756 49.042 126.05 49.042Z" fill="#ffffff"/>
<path d="M337.368 86.316V72.1065H339.767V75.0064L339.424 74.5582C339.775 73.6619 340.338 72.9765 341.111 72.502C341.884 72.0274 342.754 71.7902 343.721 71.7902C344.828 71.7902 345.821 72.0977 346.7 72.7129C347.596 73.328 348.212 74.1364 348.545 75.1382L347.86 75.1646C348.229 74.0573 348.853 73.2225 349.732 72.6601C350.611 72.0802 351.586 71.7902 352.658 71.7902C353.642 71.7902 354.53 72.0186 355.321 72.4756C356.129 72.9325 356.771 73.5652 357.245 74.3737C357.72 75.1822 357.957 76.0961 357.957 77.1154V86.316H355.479V77.9063C355.479 77.1154 355.338 76.4476 355.057 75.9027C354.776 75.3579 354.389 74.9361 353.897 74.6373C353.423 74.321 352.86 74.1628 352.21 74.1628C351.577 74.1628 351.006 74.321 350.496 74.6373C350.004 74.9361 349.609 75.3667 349.31 75.9291C349.029 76.4739 348.888 77.133 348.888 77.9063V86.316H346.41V77.9063C346.41 77.1154 346.269 76.4476 345.988 75.9027C345.707 75.3579 345.32 74.9361 344.828 74.6373C344.354 74.321 343.791 74.1628 343.141 74.1628C342.508 74.1628 341.937 74.321 341.428 74.6373C340.935 74.9361 340.54 75.3667 340.241 75.9291C339.96 76.4739 339.819 77.133 339.819 77.9063V86.316H337.368Z" fill="#ffffff" fill-opacity="0.4"/>
<path d="M328.415 86.316V72.1065H330.814V74.7164L330.55 74.3474C330.884 73.5389 331.394 72.9413 332.079 72.5547C332.765 72.1505 333.599 71.9483 334.584 71.9483H335.454V74.2683H334.215C333.213 74.2683 332.404 74.5846 331.789 75.2173C331.174 75.8324 330.867 76.7112 330.867 77.8536V86.316H328.415Z" fill="#ffffff" fill-opacity="0.4"/>
<path d="M318.178 86.6323C316.807 86.6323 315.568 86.316 314.461 85.6833C313.354 85.033 312.475 84.1455 311.825 83.0207C311.175 81.8958 310.849 80.6217 310.849 79.1981C310.849 77.7745 311.166 76.5091 311.798 75.4018C312.449 74.2946 313.327 73.4159 314.435 72.7656C315.542 72.1153 316.79 71.7902 318.178 71.7902C319.549 71.7902 320.788 72.1153 321.895 72.7656C323.003 73.3983 323.873 74.2682 324.505 75.3755C325.156 76.4827 325.481 77.7569 325.481 79.1981C325.481 80.6392 325.147 81.9222 324.479 83.047C323.811 84.1542 322.923 85.033 321.816 85.6833C320.727 86.316 319.514 86.6323 318.178 86.6323ZM318.178 84.2597C319.057 84.2597 319.848 84.04 320.551 83.6006C321.271 83.1613 321.834 82.5549 322.238 81.7816C322.66 81.0083 322.871 80.1471 322.871 79.1981C322.871 78.2314 322.66 77.379 322.238 76.6409C321.834 75.8852 321.271 75.2876 320.551 74.8482C319.848 74.3913 319.057 74.1628 318.178 74.1628C317.282 74.1628 316.473 74.3913 315.753 74.8482C315.05 75.2876 314.487 75.8852 314.066 76.6409C313.644 77.379 313.433 78.2314 313.433 79.1981C313.433 80.1471 313.644 81.0083 314.066 81.7816C314.487 82.5549 315.05 83.1613 315.753 83.6006C316.473 84.04 317.282 84.2597 318.178 84.2597Z" fill="#ffffff" fill-opacity="0.4"/>
<path d="M303.387 86.316V74.4528H300.672V72.1065H303.387V71.1047C303.387 70.0854 303.607 69.2242 304.046 68.5212C304.503 67.8182 305.1 67.2821 305.839 66.9131C306.594 66.544 307.429 66.3595 308.343 66.3595C308.536 66.3595 308.747 66.377 308.976 66.4122C309.222 66.4298 309.424 66.4561 309.582 66.4913V68.6794C309.441 68.6442 309.275 68.6266 309.081 68.6266C308.888 68.6091 308.738 68.6003 308.633 68.6003C307.825 68.6003 307.157 68.7936 306.629 69.1803C306.12 69.5669 305.865 70.2084 305.865 71.1047V72.1065H309.239V74.4528H305.865V86.316H303.387Z" fill="#ffffff" fill-opacity="0.4"/>
<path d="M297.469 86.4742C296.08 86.4742 295.008 86.0787 294.253 85.2879C293.515 84.497 293.145 83.381 293.145 81.9398V74.4528H290.562V72.1065H291.089C291.722 72.1065 292.223 71.9132 292.592 71.5265C292.961 71.1399 293.145 70.6302 293.145 69.9975V68.8376H295.597V72.1065H298.787V74.4528H295.597V81.8607C295.597 82.3352 295.667 82.7483 295.808 83.0998C295.966 83.4513 296.221 83.7325 296.573 83.9434C296.924 84.1367 297.39 84.2333 297.97 84.2333C298.093 84.2333 298.242 84.2246 298.418 84.207C298.611 84.1894 298.787 84.1718 298.945 84.1543V86.316C298.717 86.3687 298.462 86.4039 298.181 86.4215C297.9 86.4566 297.662 86.4742 297.469 86.4742Z" fill="#ffffff" fill-opacity="0.4"/>
<path d="M281.218 86.6323C280.287 86.6323 279.461 86.4654 278.74 86.1314C278.037 85.7799 277.483 85.3054 277.079 84.7079C276.675 84.0927 276.473 83.3897 276.473 82.5989C276.473 81.8431 276.631 81.1665 276.947 80.5689C277.281 79.9538 277.791 79.4353 278.476 79.0135C279.179 78.5917 280.058 78.293 281.113 78.1172L286.385 77.2472V79.3035L281.666 80.0944C280.752 80.2526 280.085 80.5426 279.663 80.9644C279.259 81.3862 279.056 81.9046 279.056 82.5198C279.056 83.0997 279.285 83.5831 279.742 83.9697C280.216 84.3564 280.805 84.5497 281.508 84.5497C282.405 84.5497 283.178 84.3652 283.828 83.9961C284.496 83.6094 285.014 83.091 285.383 82.4407C285.77 81.7904 285.963 81.0698 285.963 80.2789V76.6673C285.963 75.8939 285.673 75.27 285.093 74.7955C284.531 74.3034 283.784 74.0573 282.853 74.0573C282.044 74.0573 281.324 74.2683 280.691 74.6901C280.076 75.0943 279.619 75.6391 279.32 76.3245L277.185 75.2173C277.448 74.567 277.87 73.987 278.45 73.4774C279.03 72.9501 279.707 72.5371 280.48 72.2383C281.253 71.9395 282.062 71.7902 282.905 71.7902C283.995 71.7902 284.953 72.0011 285.779 72.4229C286.605 72.8271 287.246 73.3983 287.703 74.1364C288.178 74.857 288.415 75.7006 288.415 76.6673V86.316H286.016V83.627L286.464 83.7852C286.166 84.3476 285.761 84.8397 285.252 85.2615C284.742 85.6833 284.144 86.0172 283.459 86.2633C282.774 86.5093 282.027 86.6323 281.218 86.6323Z" fill="#ffffff" fill-opacity="0.4"/>
<path d="M271.061 86.316V66.3595H273.512V86.316H271.061Z" fill="#ffffff" fill-opacity="0.4"/>
<path d="M253.689 91.5885V72.1065H256.088V75.1646L255.772 74.5582C256.299 73.7146 257.019 73.0468 257.933 72.5547C258.847 72.045 259.893 71.7902 261.071 71.7902C262.406 71.7902 263.601 72.1153 264.656 72.7656C265.728 73.4159 266.572 74.3034 267.187 75.4282C267.802 76.5354 268.109 77.8008 268.109 79.2244C268.109 80.6129 267.802 81.8695 267.187 82.9943C266.572 84.1191 265.728 85.0066 264.656 85.6569C263.601 86.3072 262.397 86.6323 261.044 86.6323C259.902 86.6323 258.856 86.3775 257.907 85.8678C256.976 85.3581 256.255 84.6376 255.745 83.7061L256.141 83.2843V91.5885H253.689ZM260.86 84.2597C261.756 84.2597 262.556 84.04 263.259 83.6006C263.962 83.1613 264.506 82.5637 264.893 81.808C265.297 81.0347 265.499 80.1735 265.499 79.2244C265.499 78.2402 265.297 77.379 264.893 76.6409C264.506 75.8852 263.962 75.2876 263.259 74.8482C262.556 74.3913 261.756 74.1628 260.86 74.1628C259.963 74.1628 259.155 74.3825 258.434 74.8219C257.731 75.2612 257.169 75.8676 256.747 76.6409C256.343 77.3966 256.141 78.2578 256.141 79.2244C256.141 80.1735 256.343 81.0347 256.747 81.808C257.169 82.5637 257.731 83.1613 258.434 83.6006C259.155 84.04 259.963 84.2597 260.86 84.2597Z" fill="#ffffff" fill-opacity="0.4"/>
<path d="M244.98 86.4742C243.592 86.4742 242.52 86.0787 241.764 85.2879C241.026 84.497 240.657 83.381 240.657 81.9398V74.4528H238.073V72.1065H238.601C239.233 72.1065 239.734 71.9132 240.103 71.5265C240.472 71.1399 240.657 70.6302 240.657 69.9975V68.8376H243.109V72.1065H246.299V74.4528H243.109V81.8607C243.109 82.3352 243.179 82.7483 243.32 83.0998C243.478 83.4513 243.733 83.7325 244.084 83.9434C244.436 84.1367 244.901 84.2333 245.481 84.2333C245.604 84.2333 245.754 84.2246 245.929 84.207C246.123 84.1894 246.299 84.1718 246.457 84.1543V86.316C246.228 86.3687 245.973 86.4039 245.692 86.4215C245.411 86.4566 245.174 86.4742 244.98 86.4742Z" fill="#ffffff" fill-opacity="0.4"/>
<path d="M224.178 86.316V72.1065H226.577V74.8746L226.182 74.6373C226.533 73.741 227.096 73.0468 227.869 72.5547C228.66 72.045 229.583 71.7902 230.637 71.7902C231.656 71.7902 232.562 72.0186 233.352 72.4756C234.161 72.9325 234.794 73.5652 235.251 74.3737C235.725 75.1822 235.962 76.0961 235.962 77.1154V86.316H233.484V77.9063C233.484 77.1154 233.344 76.4476 233.062 75.9027C232.781 75.3579 232.377 74.9361 231.85 74.6373C231.34 74.321 230.751 74.1628 230.083 74.1628C229.416 74.1628 228.818 74.321 228.291 74.6373C227.781 74.9361 227.377 75.3667 227.078 75.9291C226.779 76.4739 226.63 77.133 226.63 77.9063V86.316H224.178Z" fill="#ffffff" fill-opacity="0.4"/>
<path d="M214.786 86.6323C213.415 86.6323 212.194 86.3072 211.122 85.6569C210.05 85.0066 209.206 84.1191 208.591 82.9943C207.976 81.8519 207.668 80.5777 207.668 79.1717C207.668 77.7481 207.967 76.4827 208.565 75.3755C209.18 74.2682 210.006 73.3983 211.043 72.7656C212.097 72.1153 213.275 71.7902 214.575 71.7902C215.63 71.7902 216.561 71.9835 217.37 72.3701C218.196 72.7392 218.89 73.2489 219.452 73.8992C220.032 74.5319 220.472 75.2612 220.771 76.0873C221.087 76.8957 221.245 77.7393 221.245 78.6181C221.245 78.8114 221.228 79.0311 221.192 79.2772C221.175 79.5056 221.148 79.7253 221.113 79.9362H209.461V77.8272H219.69L218.53 78.7763C218.688 77.8624 218.6 77.0451 218.266 76.3245C217.932 75.604 217.44 75.0328 216.79 74.611C216.14 74.1892 215.401 73.9783 214.575 73.9783C213.749 73.9783 212.994 74.1892 212.308 74.611C211.623 75.0328 211.087 75.6391 210.7 76.43C210.331 77.2033 210.182 78.126 210.252 79.1981C210.182 80.235 210.34 81.1489 210.726 81.9398C211.131 82.7131 211.693 83.3194 212.414 83.7588C213.152 84.1806 213.951 84.3915 214.813 84.3915C215.762 84.3915 216.561 84.1718 217.212 83.7324C217.862 83.2931 218.389 82.7307 218.793 82.0452L220.85 83.0997C220.568 83.75 220.129 84.3476 219.532 84.8924C218.952 85.4197 218.257 85.8415 217.449 86.1578C216.658 86.4742 215.77 86.6323 214.786 86.6323Z" fill="#ffffff" fill-opacity="0.4"/>
<path d="M184.441 86.316V72.1065H186.84V75.0064L186.497 74.5582C186.848 73.6619 187.411 72.9765 188.184 72.502C188.957 72.0274 189.827 71.7902 190.794 71.7902C191.901 71.7902 192.894 72.0977 193.773 72.7129C194.669 73.328 195.285 74.1364 195.618 75.1382L194.933 75.1646C195.302 74.0573 195.926 73.2225 196.805 72.6601C197.684 72.0802 198.659 71.7902 199.731 71.7902C200.715 71.7902 201.603 72.0186 202.394 72.4756C203.202 72.9325 203.844 73.5652 204.318 74.3737C204.793 75.1822 205.03 76.0961 205.03 77.1154V86.316H202.552V77.9063C202.552 77.1154 202.411 76.4476 202.13 75.9027C201.849 75.3579 201.462 74.9361 200.97 74.6373C200.496 74.321 199.933 74.1628 199.283 74.1628C198.65 74.1628 198.079 74.321 197.569 74.6373C197.077 74.9361 196.682 75.3667 196.383 75.9291C196.102 76.4739 195.961 77.133 195.961 77.9063V86.316H193.483V77.9063C193.483 77.1154 193.342 76.4476 193.061 75.9027C192.78 75.3579 192.393 74.9361 191.901 74.6373C191.427 74.321 190.864 74.1628 190.214 74.1628C189.581 74.1628 189.01 74.321 188.501 74.6373C188.008 74.9361 187.613 75.3667 187.314 75.9291C187.033 76.4739 186.892 77.133 186.892 77.9063V86.316H184.441Z" fill="#ffffff" fill-opacity="0.4"/>
<path d="M180.025 86.4742C178.637 86.4742 177.565 86.0787 176.809 85.2879C176.071 84.497 175.702 83.381 175.702 81.9398V74.4528H173.118V72.1065H173.646C174.278 72.1065 174.779 71.9132 175.148 71.5265C175.517 71.1399 175.702 70.6302 175.702 69.9975V68.8376H178.154V72.1065H181.343V74.4528H178.154V81.8607C178.154 82.3352 178.224 82.7483 178.364 83.0998C178.523 83.4513 178.777 83.7325 179.129 83.9434C179.48 84.1367 179.946 84.2333 180.526 84.2333C180.649 84.2333 180.799 84.2246 180.974 84.207C181.168 84.1894 181.343 84.1718 181.502 84.1543V86.316C181.273 86.3687 181.018 86.4039 180.737 86.4215C180.456 86.4566 180.219 86.4742 180.025 86.4742Z" fill="#ffffff" fill-opacity="0.4"/>
<path d="M166.139 86.6323C164.715 86.6323 163.476 86.2808 162.422 85.5778C161.367 84.8748 160.62 83.9258 160.181 82.7307L162.132 81.7816C162.536 82.6252 163.09 83.2931 163.793 83.7852C164.496 84.2773 165.278 84.5233 166.139 84.5233C166.912 84.5233 167.554 84.3388 168.063 83.9697C168.573 83.6006 168.828 83.1173 168.828 82.5198C168.828 82.098 168.705 81.764 168.459 81.518C168.23 81.2544 167.949 81.0522 167.615 80.9116C167.281 80.7535 166.974 80.6392 166.693 80.5689L164.557 79.9626C163.274 79.5935 162.334 79.0663 161.736 78.3808C161.156 77.6954 160.866 76.8957 160.866 75.9818C160.866 75.1382 161.077 74.4089 161.499 73.7937C161.939 73.161 162.527 72.6689 163.265 72.3174C164.021 71.9659 164.865 71.7902 165.796 71.7902C167.044 71.7902 168.16 72.1065 169.144 72.7392C170.146 73.3719 170.858 74.2595 171.28 75.4018L169.276 76.3245C168.96 75.5864 168.485 75.0064 167.853 74.5846C167.22 74.1452 166.508 73.9255 165.717 73.9255C164.997 73.9255 164.425 74.1101 164.004 74.4792C163.582 74.8307 163.371 75.2788 163.371 75.8236C163.371 76.2279 163.476 76.5618 163.687 76.8254C163.898 77.0715 164.153 77.2648 164.452 77.4054C164.751 77.5284 165.041 77.6339 165.322 77.7218L167.642 78.4072C168.802 78.7411 169.698 79.2596 170.331 79.9626C170.981 80.6656 171.306 81.5092 171.306 82.4934C171.306 83.2843 171.086 83.9961 170.647 84.6288C170.208 85.2615 169.601 85.7536 168.828 86.1051C168.055 86.4566 167.158 86.6323 166.139 86.6323Z" fill="#ffffff" fill-opacity="0.4"/>
<path d="M151.659 86.6323C150.288 86.6323 149.067 86.3072 147.995 85.6569C146.923 85.0066 146.079 84.1191 145.464 82.9943C144.849 81.8519 144.541 80.5777 144.541 79.1717C144.541 77.7481 144.84 76.4827 145.437 75.3755C146.053 74.2682 146.879 73.3983 147.916 72.7656C148.97 72.1153 150.148 71.7902 151.448 71.7902C152.503 71.7902 153.434 71.9835 154.243 72.3701C155.069 72.7392 155.763 73.2489 156.325 73.8992C156.905 74.5319 157.345 75.2612 157.643 76.0873C157.96 76.8957 158.118 77.7393 158.118 78.6181C158.118 78.8114 158.1 79.0311 158.065 79.2772C158.048 79.5056 158.021 79.7253 157.986 79.9362H146.334V77.8272H156.563L155.403 78.7763C155.561 77.8624 155.473 77.0451 155.139 76.3245C154.805 75.604 154.313 75.0328 153.663 74.611C153.012 74.1892 152.274 73.9783 151.448 73.9783C150.622 73.9783 149.866 74.1892 149.181 74.611C148.496 75.0328 147.959 75.6391 147.573 76.43C147.204 77.2033 147.054 78.126 147.125 79.1981C147.054 80.235 147.213 81.1489 147.599 81.9398C148.003 82.7131 148.566 83.3194 149.286 83.7588C150.025 84.1806 150.824 84.3915 151.685 84.3915C152.634 84.3915 153.434 84.1718 154.084 83.7324C154.735 83.2931 155.262 82.7307 155.666 82.0452L157.722 83.0997C157.441 83.75 157.002 84.3476 156.404 84.8924C155.824 85.4197 155.13 85.8415 154.322 86.1578C153.531 86.4742 152.643 86.6323 151.659 86.6323Z" fill="#ffffff" fill-opacity="0.4"/>
<path d="M135.54 86.316L129.977 72.1065H132.719L137.174 84.1279H136.225L140.707 72.1065H143.449L137.86 86.316H135.54Z" fill="#ffffff" fill-opacity="0.4"/>
<path d="M116.814 86.316V72.1065H119.213V74.8746L118.818 74.6373C119.169 73.741 119.732 73.0468 120.505 72.5547C121.296 72.045 122.219 71.7902 123.273 71.7902C124.292 71.7902 125.198 72.0186 125.988 72.4756C126.797 72.9325 127.43 73.5652 127.887 74.3737C128.361 75.1822 128.598 76.0961 128.598 77.1154V86.316H126.12V77.9063C126.12 77.1154 125.98 76.4476 125.698 75.9027C125.417 75.3579 125.013 74.9361 124.486 74.6373C123.976 74.321 123.387 74.1628 122.719 74.1628C122.052 74.1628 121.454 74.321 120.927 74.6373C120.417 74.9361 120.013 75.3667 119.714 75.9291C119.415 76.4739 119.266 77.133 119.266 77.9063V86.316H116.814Z" fill="#ffffff" fill-opacity="0.4"/>
<path d="M110.417 86.316V66.6758H113V86.316H110.417Z" fill="#ffffff" fill-opacity="0.4"/>
<defs>
<linearGradient id="paint0_linear_48_516" x1="27.7196" y1="0" x2="27.7196" y2="84.5953" gradientUnits="userSpaceOnUse">
<stop stop-color="#b867f1" data-originalstopcolor="#b867f1"/>
<stop offset="1" stop-color="#5e7cee" data-originalstopcolor="#5e7cee"/>
</linearGradient>
</defs>
</svg>