<svg width="25" height="25" viewBox="0 0 25 25" fill="none" xmlns="http://www.w3.org/2000/svg">
<path d="M14.5287 1.77445L16.7089 6.13471C17.0062 6.74168 17.7989 7.32387 18.4678 7.43536L22.4193 8.09187C24.9463 8.51303 25.5409 10.3463 23.72 12.1548L20.648 15.2268C20.1277 15.7471 19.8428 16.7505 20.0038 17.4689L20.8833 21.2717C21.577 24.2818 19.9791 25.4462 17.3158 23.873L13.6121 21.6805C12.9432 21.2841 11.8407 21.2841 11.1595 21.6805L7.45571 23.873C4.80487 25.4462 3.19455 24.2694 3.88823 21.2717L4.76771 17.4689C4.92874 16.7505 4.64384 15.7471 4.12358 15.2268L1.05158 12.1548C-0.756935 10.3463 -0.174741 8.51303 2.35223 8.09187L6.30371 7.43536C6.96023 7.32387 7.753 6.74168 8.05029 6.13471L10.2304 1.77445C11.4196 -0.591484 13.352 -0.591484 14.5287 1.77445Z" fill="#F1AB58"/>
</svg>
